HIERARCHY
ROOT Hips
{
	OFFSET -0.001795 -0.223333 0.028219
	CHANNELS 6 Xposition Yposition Zposition Zrotation Yrotation Xrotation 
	JOINT LeftUpLeg
	{
		OFFSET 0.069520 -0.091406 -0.006815
		CHANNELS 3 Zrotation Yrotation Xrotation
		JOINT LeftLeg
		{
			OFFSET 0.034277 -0.375199 -0.004496
			CHANNELS 3 Zrotation Yrotation Xrotation
			JOINT LeftFoot
			{
				OFFSET -0.013596 -0.397961 -0.043693
				CHANNELS 3 Zrotation Yrotation Xrotation
				JOINT LeftToe
				{
					OFFSET 0.026358 -0.055791 0.119288
					CHANNELS 3 Zrotation Yrotation Xrotation
					End Site
					{
						OFFSET 0.000000 0.000000 0.000000
					}
				}
			}
		}
	}
	JOINT RightUpLeg
	{
		OFFSET -0.067670 -0.090522 -0.004320
		CHANNELS 3 Zrotation Yrotation Xrotation
		JOINT RightLeg
		{
			OFFSET -0.038290 -0.382569 -0.008850
			CHANNELS 3 Zrotation Yrotation Xrotation
			JOINT RightFoot
			{
				OFFSET 0.015774 -0.398415 -0.042312
				CHANNELS 3 Zrotation Yrotation Xrotation
				JOINT RightToe
				{
					OFFSET -0.025372 -0.048144 0.123348
					CHANNELS 3 Zrotation Yrotation Xrotation
					End Site
					{
						OFFSET 0.000000 0.000000 0.000000
					}
				}
			}
		}
	}
	JOINT Spine
	{
		OFFSET -0.002533 0.108963 -0.026696
		CHANNELS 3 Zrotation Yrotation Xrotation
		JOINT Spine1
		{
			OFFSET 0.005487 0.135180 0.001092
			CHANNELS 3 Zrotation Yrotation Xrotation
			JOINT Spine2
			{
				OFFSET 0.001457 0.052922 0.025425
				CHANNELS 3 Zrotation Yrotation Xrotation
				JOINT Neck
				{
					OFFSET -0.002778 0.213870 -0.042857
					CHANNELS 3 Zrotation Yrotation Xrotation
					JOINT Head
					{
						OFFSET 0.005152 0.064970 0.051349
						CHANNELS 3 Zrotation Yrotation Xrotation
						End Site
						{
							OFFSET 0.000000 0.000000 0.000000
						}
					}
				}
				JOINT LeftShoulder
				{
					OFFSET 0.078845 0.121749 -0.034090
					CHANNELS 3 Zrotation Yrotation Xrotation
					JOINT LeftArm
					{
						OFFSET 0.090977 0.030469 -0.008868
						CHANNELS 3 Zrotation Yrotation Xrotation
						JOINT LeftForeArm
						{
							OFFSET 0.259612 -0.012772 -0.027456
							CHANNELS 3 Zrotation Yrotation Xrotation
							JOINT LeftHand
							{
								OFFSET 0.249234 0.008986 -0.001171
								CHANNELS 3 Zrotation Yrotation Xrotation
								End Site
								{
									OFFSET 0.000000 0.000000 0.000000
								}
							}
						}
					}
				}
				JOINT RightShoulder
				{
					OFFSET -0.081759 0.118833 -0.038615
					CHANNELS 3 Zrotation Yrotation Xrotation
					JOINT RightArm
					{
						OFFSET -0.096012 0.032551 -0.009143
						CHANNELS 3 Zrotation Yrotation Xrotation
						JOINT RightForeArm
						{
							OFFSET -0.253742 -0.013329 -0.021401
							CHANNELS 3 Zrotation Yrotation Xrotation
							JOINT RightHand
							{
								OFFSET -0.255298 0.007772 -0.005559
								CHANNELS 3 Zrotation Yrotation Xrotation
								End Site
								{
									OFFSET 0.000000 0.000000 0.000000
								}
							}
						}
					}
				}
			}
		}
	}
}
MOTION
Frames: 6
Frame Time: 0.050000
0.000000 0.941965 0.000000 1.160846 -2.988987 9.626970 4.303397 -0.450625 -5.916307 -0.845037 0.291131 -7.067525 2.499653 8.408169 12.418232 0.000000 0.000000 0.000000 -4.658424 0.628798 -6.391080 -1.766324 -0.070536 -4.416061 -3.606544 -11.928358 11.124443 0.000000 0.000000 0.000000 5.093832 0.387948 -6.744237 -3.665470 1.602686 -5.948878 -4.885110 5.344242 7.856562 2.396571 -0.383825 -11.345541 0.000000 0.000000 0.000000 -13.164922 1.573366 -2.641154 -56.846421 -8.634614 -2.996677 -5.068766 -13.854291 1.049517 0.000000 0.000000 0.000000 11.221507 -10.408488 -5.234546 68.266344 2.808128 -4.666328 2.859159 20.452699 1.370718 0.000000 0.000000 0.000000 
-0.000049 0.941603 0.000447 1.220705 -2.715136 10.425692 4.330348 -0.453248 -5.761103 -0.913992 0.333584 -8.408714 2.464968 8.425624 12.628215 0.000000 0.000000 0.000000 -4.519588 0.687025 -7.214679 -2.438272 -0.051473 -4.744693 -3.439172 -11.731837 11.813884 0.000000 0.000000 0.000000 6.732239 0.487246 -7.575487 -4.592178 1.973716 -6.139722 -6.346536 5.386668 7.573839 0.351708 1.129403 -12.521011 0.000000 0.000000 0.000000 -13.639201 2.476464 -3.214894 -55.587082 -8.735394 -2.835897 -5.170801 -13.330548 1.009979 0.000000 0.000000 0.000000 10.841226 -12.119221 -5.947195 69.946915 1.319771 -5.496631 3.593591 21.283343 1.578119 0.000000 0.000000 0.000000 
-0.000165 0.941632 0.000537 1.866090 -2.620009 10.195650 3.741829 -0.498375 -6.388877 -1.089062 0.278368 -6.228626 1.772474 7.013563 11.316113 0.000000 0.000000 0.000000 -5.333422 0.687396 -7.405442 -2.005192 -0.044438 -4.201778 -4.342989 -13.272460 11.167374 0.000000 0.000000 0.000000 6.455466 0.455682 -7.310139 -4.939310 2.102722 -6.560223 -6.671326 4.625237 7.610349 -0.010603 1.216079 -11.483867 0.000000 0.000000 0.000000 -13.283776 2.004671 -2.819329 -55.404046 -8.636285 -2.888003 -4.837105 -12.611393 0.933804 0.000000 0.000000 0.000000 11.801158 -11.265136 -5.762208 68.521933 1.038466 -5.753688 4.528925 21.347580 1.713226 0.000000 0.000000 0.000000 
-0.000377 0.941790 0.000574 2.217303 -2.246576 10.589853 3.863446 -0.527381 -6.845921 -1.437365 0.299271 -6.360242 1.156404 6.119473 11.663153 0.000000 0.000000 0.000000 -5.571987 0.712829 -7.903627 -2.261176 -0.031750 -4.261464 -4.847562 -14.288680 11.969780 0.000000 0.000000 0.000000 6.603518 0.477936 -7.619508 -5.318240 2.283805 -5.778258 -7.164560 3.950109 6.553623 -1.029632 1.792724 -10.717991 0.000000 0.000000 0.000000 -13.561034 2.657028 -3.144802 -55.271769 -9.331275 -2.429383 -4.014878 -12.036796 0.806767 0.000000 0.000000 0.000000 10.850130 -11.908653 -5.957639 69.315425 0.354033 -6.087950 5.641570 22.307784 1.974586 0.000000 0.000000 0.000000 
-0.000650 0.942314 0.000550 2.557508 -1.955298 10.339293 3.331704 -0.532903 -6.703081 -1.362509 0.289445 -6.173747 0.935590 5.762116 11.553400 0.000000 0.000000 0.000000 -5.728325 0.708502 -8.015583 -2.729736 0.023719 -3.851580 -5.033786 -14.552512 11.621777 0.000000 0.000000 0.000000 6.431415 0.458633 -7.454985 -5.158376 2.227107 -5.652929 -7.615946 3.531677 6.672946 -1.493758 2.141765 -11.516282 0.000000 0.000000 0.000000 -13.355514 2.290691 -2.907046 -55.262886 -9.622694 -2.310969 -4.310247 -11.848814 0.827648 0.000000 0.000000 0.000000 10.867122 -11.954451 -5.998681 69.086149 0.424690 -6.065261 5.877887 22.340328 2.013875 0.000000 0.000000 0.000000 
-0.000970 0.942803 0.000585 2.790587 -1.811487 10.440013 3.214120 -0.538117 -6.709833 -1.565819 0.299606 -6.156215 0.898735 5.683453 11.424603 0.000000 0.000000 0.000000 -5.853177 0.701104 -7.923208 -3.085609 0.021125 -4.251235 -5.164703 -14.848417 12.188680 0.000000 0.000000 0.000000 6.330460 0.459935 -7.537074 -5.269348 2.269774 -5.796610 -7.744974 3.342283 6.792225 -1.873346 2.381293 -11.504432 0.000000 0.000000 0.000000 -13.638779 2.616077 -3.088538 -55.078477 -9.824510 -2.211864 -3.998209 -11.974299 0.807482 0.000000 0.000000 0.000000 10.661411 -11.970217 -5.981054 69.319729 0.234047 -6.211329 6.050081 22.565979 2.064006 0.000000 0.000000 0.000000 
